#!OML:ASF X:\2005_08_12_Meinard\c3d\meinard.ASF
:FULLY-SPECIFIED
:DEGREES
930
root 5.02019 16.9627 -0.562482 -23.0197 -79.6827 0.358019
lowerback 34.1686 1.58182 -4.29152
upperback 4.59465 -0.734663 -4.04661
thorax -12.362 -0.462411 -1.7053
lowerneck 0.890703 -14.5465 3.00818
upperneck -12.6481 -18.8781 9.90348
head -3.58101 -10.0337 3.33422
rclavicle 1.59028e-014 -6.36111e-015
rhumerus 23.4185 12.9162 -15.3795
rradius 60.1163
rwrist 16.7543
rhand -29.9628 -8.21771
rfingers 7.12502
rthumb -3.28151 -38.1722
lclavicle 1.59028e-014 -6.36111e-015
lhumerus 19.7767 170.634 73.6435
lradius 19.6851
lwrist -181.618
lhand -26.0372 -11.8346
lfingers 7.12502
lthumb 0.509822 18.1446
rfemur 2.54233 -10.6098 10.7302
rtibia 61.3511
rfoot -5.39555 -1.86031
rtoes -17.4276
lfemur 11.779 3.02138 -17.6097
ltibia 27.6847
lfoot -14.4546 -0.760022
ltoes -16.2213
931
root 4.9317 16.9567 -0.583838 -22.345 -79.5168 -0.349602
lowerback 34.2192 1.52015 -4.23951
upperback 4.54097 -0.787249 -3.9968
thorax -12.4434 -0.483475 -1.65936
lowerneck 0.966427 -14.6188 3.21208
upperneck -12.7877 -18.9707 9.72018
head -3.68241 -10.0836 3.27445
rclavicle 3.8763e-015 -4.92986e-014
rhumerus 24.3465 14.6744 -13.1648
rradius 63.0121
rwrist 18.3268
rhand -29.6465 -8.23138
rfingers 7.12502
rthumb -2.97606 -38.1904
lclavicle 3.8763e-015 -4.92986e-014
lhumerus 19.144 171.694 73.1512
lradius 20.1651
lwrist -183.583
lhand -26.4174 -11.9166
lfingers 7.12502
lthumb 0.142565 18.063
rfemur 2.11365 -10.5086 10.7311
rtibia 60.124
rfoot -5.8776 -1.33022
rtoes -17.4618
lfemur 12.0683 2.82573 -17.3704
ltibia 27.7638
lfoot -14.7985 -0.827541
ltoes -16.2812
932
root 4.84103 16.9517 -0.607381 -21.7588 -79.3583 -0.978004
lowerback 34.2693 1.46525 -4.17767
upperback 4.48756 -0.830147 -3.9625
thorax -12.5251 -0.500993 -1.63918
lowerneck 1.09698 -14.6982 3.3768
upperneck -12.9426 -19.0674 9.58346
head -3.79122 -10.1369 3.24158
rclavicle 1.69961e-014 9.54166e-015
rhumerus 25.2752 16.3285 -10.9225
rradius 65.9254
rwrist 19.773
rhand -29.7212 -8.27193
rfingers 7.12502
rthumb -3.04825 -38.2299
lclavicle 1.69961e-014 9.54166e-015
lhumerus 18.8408 171.122 73.5603
lradius 20.2012
lwrist -183.615
lhand -26.4755 -12.0641
lfingers 7.12502
lthumb 0.0865169 17.9156
rfemur 1.7258 -10.366 10.7187
rtibia 58.8012
rfoot -6.37647 -0.873907
rtoes -17.7953
lfemur 12.3739 2.65139 -17.1222
ltibia 27.8372
lfoot -15.1432 -0.914425
ltoes -16.4343
933
root 4.75097 16.9456 -0.631599 -21.3626 -79.1384 -1.42021
lowerback 34.3309 1.39892 -4.11976
upperback 4.44598 -0.891696 -3.93928
thorax -12.5982 -0.527488 -1.62103
lowerneck 1.2117 -14.7877 3.46174
upperneck -13.0903 -19.1791 9.49587
head -3.8808 -10.1961 3.23197
rclavicle 1.36167e-014 3.02153e-014
rhumerus 26.2939 17.8683 -8.6393
rradius 68.6878
rwrist 21.0747
rhand -30.3214 -8.21858
rfingers 7.12502
rthumb -3.62782 -38.1675
lclavicle 1.36167e-014 3.02153e-014
lhumerus 18.5274 170.448 74.0396
lradius 20.1746
lwrist -183.409
lhand -26.5225 -12.2337
lfingers 7.12502
lthumb 0.0411073 17.7461
rfemur 1.38086 -10.1929 10.6461
rtibia 57.3975
rfoot -6.8569 -0.462458
rtoes -18.1595
lfemur 12.6773 2.44395 -16.9297
ltibia 27.9017
lfoot -15.4744 -1.01413
ltoes -16.6295
934
root 4.65855 16.9385 -0.65732 -20.8135 -78.9388 -2.02108
lowerback 34.3653 1.33254 -4.01767
upperback 4.41687 -0.932597 -3.90561
thorax -12.6472 -0.546805 -1.62317
lowerneck 1.32753 -14.8802 3.49221
upperneck -13.2341 -19.2948 9.44345
head -3.95979 -10.2564 3.23997
rclavicle 6.2816e-014 -1.43125e-014
rhumerus 27.4097 19.2734 -6.30698
rradius 71.2056
rwrist 22.2099
rhand -31.3145 -7.95499
rfingers 7.12502
rthumb -4.58683 -37.8853
lclavicle 6.2816e-014 -1.43125e-014
lhumerus 18.2144 169.67 74.5809
lradius 20.0963
lwrist -183.033
lhand -26.5769 -12.3869
lfingers 7.12502
lthumb -0.0114664 17.5929
rfemur 1.07973 -9.9781 10.6091
rtibia 55.9216
rfoot -7.33167 -0.0971403
rtoes -18.6571
lfemur 12.9958 2.25077 -16.684
ltibia 27.9604
lfoot -15.8146 -1.09911
ltoes -16.8505
935
root 4.5666 16.9314 -0.683959 -20.4847 -78.7055 -2.41016
lowerback 34.437 1.26339 -3.92092
upperback 4.37618 -0.987034 -3.90205
thorax -12.7252 -0.572205 -1.64968
lowerneck 1.45855 -14.9821 3.47195
upperneck -13.3485 -19.422 9.43552
head -4.02043 -10.3215 3.26724
rclavicle -1.44119e-014 -3.33958e-014
rhumerus 28.6459 20.5606 -3.97386
rradius 73.3401
rwrist 23.1609
rhand -32.671 -7.40577
rfingers 7.12502
rthumb -5.89654 -37.3037
lclavicle -1.44119e-014 -3.33958e-014
lhumerus 17.9178 168.85 75.0993
lradius 19.9543
lwrist -182.583
lhand -26.6082 -12.5648
lfingers 7.12502
lthumb -0.0416454 17.4149
rfemur 0.8366 -9.73828 10.5146
rtibia 54.3939
rfoot -7.73298 0.303105
rtoes -19.0254
lfemur 13.311 2.02464 -16.4888
ltibia 28.0255
lfoot -16.149 -1.2041
ltoes -17.1101
936
root 4.47445 16.9229 -0.712303 -20.0617 -78.4739 -2.87595
lowerback 34.4676 1.20685 -3.8135
upperback 4.34982 -1.01452 -3.87924
thorax -12.77 -0.586126 -1.67175
lowerneck 1.61242 -15.0924 3.43828
upperneck -13.5316 -19.5555 9.46788
head -4.1044 -10.3935 3.31759
rclavicle 6.55989e-015 -4.77083e-014
rhumerus 29.9104 21.648 -1.64507
rradius 75.166
rwrist 23.9409
rhand -34.1613 -6.52585
rfingers 7.12502
rthumb -7.33531 -36.3787
lclavicle 6.55989e-015 -4.77083e-014
lhumerus 17.6002 168.002 75.6409
lradius 19.7487
lwrist -182.068
lhand -26.6049 -12.7019
lfingers 7.12502
lthumb -0.0385213 17.2778
rfemur 0.61251 -9.46195 10.4416
rtibia 52.8175
rfoot -8.05218 0.684976
rtoes -19.114
lfemur 13.5887 1.81224 -16.2618
ltibia 28.1183
lfoot -16.4952 -1.31387
ltoes -17.4085
937
root 4.38172 16.9126 -0.741493 -19.711 -78.2382 -3.29285
lowerback 34.5344 1.14754 -3.70751
upperback 4.31325 -1.05046 -3.86542
thorax -12.8413 -0.60367 -1.69955
lowerneck 1.75243 -15.2032 3.41905
upperneck -13.665 -19.6927 9.47876
head -4.17169 -10.4649 3.35409
rclavicle 2.99171e-014 -2.38542e-014
rhumerus 31.184 22.5928 0.596811
rradius 76.7509
rwrist 24.6283
rhand -35.6154 -5.48892
rfingers 7.12502
rthumb -8.73865 -35.288
lclavicle 2.99171e-014 -2.38542e-014
lhumerus 17.3156 167.263 76.0972
lradius 19.478
lwrist -181.651
lhand -26.6053 -12.7947
lfingers 7.12502
lthumb -0.0388559 17.185
rfemur 0.475774 -9.15768 10.3442
rtibia 51.1884
rfoot -8.29759 1.03559
rtoes -19.0771
lfemur 13.8697 1.61597 -16.0317
ltibia 28.2569
lfoot -16.8698 -1.4117
ltoes -17.7971
938
root 4.28955 16.8985 -0.771862 -19.5398 -77.9798 -3.52638
lowerback 34.6131 1.09537 -3.64447
upperback 4.27784 -1.09539 -3.85731
thorax -12.915 -0.623736 -1.70683
lowerneck 1.84689 -15.3099 3.45847
upperneck -13.7811 -19.8281 9.45103
head -4.23518 -10.535 3.36546
rclavicle -6.4605e-015 3.97569e-014
rhumerus 32.4336 23.3237 2.73048
rradius 78.1197
rwrist 25.1431
rhand -36.931 -4.27558
rfingers 7.12502
rthumb -10.0081 -34.0176
lclavicle -6.4605e-015 3.97569e-014
lhumerus 17.0593 166.475 76.5742
lradius 19.1239
lwrist -181.073
lhand -26.5721 -12.8869
lfingers 7.12502
lthumb -0.00684655 17.0929
rfemur 0.408969 -8.78449 10.2084
rtibia 49.5047
rfoot -8.45207 1.31123
rtoes -18.9223
lfemur 14.1065 1.41096 -15.8362
ltibia 28.4556
lfoot -17.2624 -1.54194
ltoes -18.1868
939
root 4.19713 16.8822 -0.803384 -19.2635 -77.7073 -3.84493
lowerback 34.6671 1.0488 -3.57168
upperback 4.24081 -1.12549 -3.84007
thorax -12.9807 -0.637168 -1.71547
lowerneck 1.9651 -15.4219 3.54034
upperneck -13.93 -19.9655 9.42933
head -4.3197 -10.6093 3.37982
rclavicle -2.0773e-014 -4.92986e-014
rhumerus 33.5409 23.8131 4.61887
rradius 79.2644
rwrist 25.5964
rhand -38.0555 -2.91227
rfingers 7.12502
rthumb -11.0928 -32.5991
lclavicle -2.0773e-014 -4.92986e-014
lhumerus 16.8057 165.641 77.0348
lradius 18.7195
lwrist -180.424
lhand -26.4975 -13.0015
lfingers 7.12502
lthumb 0.0652316 16.9783
rfemur 0.407845 -8.33683 10.0827
rtibia 47.7531
rfoot -8.52628 1.695
rtoes -18.3848
lfemur 14.2825 1.19653 -15.6177
ltibia 28.7192
lfoot -17.6871 -1.67207
ltoes -18.5769
940
root 4.10439 16.8628 -0.836129 -18.9447 -77.4337 -4.22473
lowerback 34.7256 0.996939 -3.47058
upperback 4.226 -1.15409 -3.83356
thorax -13.0239 -0.6525 -1.75111
lowerneck 2.00232 -15.5374 3.67173
upperneck -14.0483 -20.113 9.39532
head -4.38462 -10.6889 3.37329
rclavicle -2.55438e-014 2.70347e-014
rhumerus 34.5125 24.0403 6.17274
rradius 80.0845
rwrist 26.0293
rhand -39.0511 -1.43216
rfingers 7.12502
rthumb -12.0529 -31.0651
lclavicle -2.55438e-014 2.70347e-014
lhumerus 16.5813 164.656 77.4962
lradius 18.2144
lwrist -179.587
lhand -26.3293 -13.1269
lfingers 7.12502
lthumb 0.227704 16.8528
rfemur 0.479764 -7.80039 9.97942
rtibia 45.9702
rfoot -8.5674 2.1611
rtoes -17.8197
lfemur 14.4397 0.977036 -15.3728
ltibia 29.0535
lfoot -18.1201 -1.81057
ltoes -18.8949
941
root 4.01123 16.8419 -0.86978 -18.7994 -77.1384 -4.42343
lowerback 34.7951 0.956379 -3.41508
upperback 4.19009 -1.18521 -3.82279
thorax -13.0943 -0.665963 -1.75703
lowerneck 2.09311 -15.6588 3.7839
upperneck -14.5849 -20.2133 9.56733
head -4.12497 -10.7885 3.09864
rclavicle -9.74045e-015 -5.08889e-014
rhumerus 35.3874 24.0507 7.45319
rradius 80.4825
rwrist 26.4277
rhand -39.9959 0.155689
rfingers 7.12502
rthumb -12.9639 -29.4216
lclavicle -9.74045e-015 -5.08889e-014
lhumerus 16.4376 163.472 78.048
lradius 17.6554
lwrist -178.387
lhand -26.1299 -13.3372
lfingers 7.12502
lthumb 0.420293 16.6421
rfemur 0.577136 -7.21964 9.82934
rtibia 44.1816
rfoot -8.55731 2.7217
rtoes -17.3398
lfemur 14.5905 0.733828 -15.1764
ltibia 29.3831
lfoot -18.5777 -1.92988
ltoes -19.3016
